<svg width="60" height="60" viewBox="0 0 60 60" fill="none" xmlns="http://www.w3.org/2000/svg">
<rect width="60" height="60" fill="#F9BA00"/>
<path d="M34.9261 24.6307C34.8314 23.589 34.41 22.7794 33.6619 22.2017C32.9233 21.6146 31.8674 21.321 30.4943 21.321C29.5852 21.321 28.8277 21.4394 28.2216 21.6761C27.6155 21.9129 27.161 22.2396 26.858 22.6562C26.5549 23.0634 26.3987 23.5322 26.3892 24.0625C26.3703 24.4981 26.4555 24.8816 26.6449 25.2131C26.8438 25.5445 27.1278 25.8381 27.4972 26.0938C27.8759 26.34 28.3305 26.5578 28.8608 26.7472C29.3911 26.9366 29.9877 27.1023 30.6506 27.2443L33.1506 27.8125C34.59 28.125 35.8589 28.5417 36.9574 29.0625C38.0653 29.5833 38.9934 30.2036 39.7415 30.9233C40.4991 31.643 41.072 32.4716 41.4602 33.4091C41.8485 34.3466 42.0473 35.3977 42.0568 36.5625C42.0473 38.3996 41.5833 39.9763 40.6648 41.2926C39.7462 42.6089 38.4252 43.6174 36.7017 44.3182C34.9877 45.0189 32.9186 45.3693 30.4943 45.3693C28.0606 45.3693 25.9394 45.0047 24.1307 44.2756C22.322 43.5464 20.9157 42.4384 19.9119 40.9517C18.9081 39.465 18.392 37.5852 18.3636 35.3125H25.0966C25.1534 36.25 25.4044 37.0312 25.8494 37.6562C26.2945 38.2812 26.9053 38.7547 27.6818 39.0767C28.4678 39.3987 29.3769 39.5597 30.4091 39.5597C31.3561 39.5597 32.161 39.4318 32.8239 39.1761C33.4962 38.9205 34.0123 38.5653 34.3722 38.1108C34.732 37.6562 34.9167 37.1354 34.9261 36.5483C34.9167 35.9991 34.7462 35.5303 34.4148 35.142C34.0833 34.7443 33.572 34.4034 32.8807 34.1193C32.1989 33.8258 31.3277 33.5559 30.267 33.3097L27.2273 32.5994C24.7083 32.0218 22.7244 31.089 21.2756 29.8011C19.8267 28.5038 19.107 26.7519 19.1165 24.5455C19.107 22.7462 19.59 21.1695 20.5653 19.8153C21.5407 18.4612 22.8902 17.4053 24.6136 16.6477C26.3371 15.8902 28.3021 15.5114 30.5085 15.5114C32.7623 15.5114 34.7178 15.8949 36.375 16.6619C38.0417 17.4195 39.3343 18.4848 40.2528 19.858C41.1714 21.2311 41.6402 22.822 41.6591 24.6307H34.9261Z" fill="white"/>
</svg>
